<?xml version="1.0" encoding="UTF-8" standalone="no"?>
<svg
   width="1837.1743"
   height="694.284"
   viewBox="0 0 1837.1743 694.284"
   version="1.1"
   xml:space="preserve"
   style="clip-rule:evenodd;fill-rule:evenodd;stroke-linejoin:round;stroke-miterlimit:2"
   id="svg71"
   sodipodi:docname="Aaron Li.svg"
   inkscape:version="1.1 (c68e22c387, 2021-05-23)"
   xmlns:inkscape="http://www.inkscape.org/namespaces/inkscape"
   xmlns:sodipodi="http://sodipodi.sourceforge.net/DTD/sodipodi-0.dtd"
   xmlns="http://www.w3.org/2000/svg"
   xmlns:svg="http://www.w3.org/2000/svg"><defs
   id="defs75" /><sodipodi:namedview
   id="namedview73"
   pagecolor="#505050"
   bordercolor="#eeeeee"
   borderopacity="1"
   inkscape:pageshadow="0"
   inkscape:pageopacity="0"
   inkscape:pagecheckerboard="0"
   showgrid="false"
   inkscape:zoom="0.75585938"
   inkscape:cx="570.87338"
   inkscape:cy="218.95607"
   inkscape:window-width="3440"
   inkscape:window-height="1369"
   inkscape:window-x="1072"
   inkscape:window-y="247"
   inkscape:window-maximized="1"
   inkscape:current-layer="svg71"
   fit-margin-top="0"
   fit-margin-left="0"
   fit-margin-right="0"
   fit-margin-bottom="0" />
    <g
   transform="matrix(0.945279,0.71906,-0.720955,0.947769,845.95849,-848.91177)"
   id="g45"
   style="fill:#ffffff">
        <path
   d="m 783.203,775.472 c -6.802,-12.86 -14.073,-26.541 -21.789,-38.815 -13.66,-21.727 -29.235,-38.95 -45.03,-44.215 -3.85,-1.284 -9.09,-0.951 -13.907,1.89 -4.639,2.737 -8.458,7.831 -9.531,11.049 -2.122,6.366 -2.341,15.607 -1.214,26.491 -2.842,-3.328 -5.668,-6.107 -8.424,-8.265 -8.236,-6.448 -16.528,-8.263 -24.006,-6.393 -11.228,2.807 -19.479,11.475 -23.771,24.52 -3.936,11.959 -4.429,28.135 -1.738,44.49 -2.563,-2.415 -4.976,-3.776 -6.806,-4.386 -6.929,-2.31 -11.502,-0.575 -14.159,1.086 -3.675,2.297 -6.238,5.87 -6.59,11.204 -0.214,3.249 1.34,9.425 5.399,16.402 5.631,9.68 15.962,23.204 20.857,30.198 0.831,1.186 2.494,3.612 4.807,6.927 1.386,3.466 2.776,7.038 4.165,10.683 12.042,31.615 23.977,68.735 29.143,92.063 -30.955,-31.449 -52.768,-77.634 -73.826,-115.539 -5.052,-9.092 -19.068,-24.699 -19.068,-24.699 -3.477,-3.83 -8.946,-5.154 -13.796,-3.34 -4.851,1.814 -8.099,6.398 -8.194,11.564 0,0 -0.416,32.102 -5.178,55.877 -10.033,-12.49 -20.733,-18.578 -29.376,-18.578 -6.975,0 -12.629,5.639 -12.629,12.596 v 27.316 c 0,21.018 9.014,31.459 17.747,34.702 6.635,2.464 14.535,1.844 22.428,-3.199 0.849,-0.543 1.707,-1.148 2.567,-1.818 10.008,21.355 19.219,46.8 25.917,70.407 6.115,21.55 10.166,41.53 10.535,55.28 0.041,1.54 -0.061,3.25 -0.209,4.8 -0.401,-0.2 -0.789,-0.41 -1.148,-0.62 -5.866,-3.49 -12.829,-9.09 -20.408,-15.98 -22.92,-20.83 -50.769,-53.09 -70.088,-79.31 -0.6,-3.676 -2.823,-7.003 -6.197,-8.92 -4.808,-10.642 -9.489,-20.633 -12.724,-26.644 -3.197,-5.942 -6.449,-9.246 -7.789,-10.136 -5.526,-3.669 -10.285,-2.467 -13.71,-0.488 -2.277,1.316 -6.519,4.313 -6.519,11.725 l 0.007,0.231 c -3.127,-1.183 -6.478,-2.114 -10.128,-2.722 -29.058,-4.844 -45.331,19.294 -44.94,59.461 0.504,51.583 26.502,130.063 59.651,169.383 17.022,20.2 36.433,30.22 54.96,26.92 18.425,-3.28 28.799,-21.42 29.383,-48.71 0.628,-29.36 -8.847,-70.09 -18.288,-101.8 10.021,10.96 20.081,21.19 29.369,29.63 13.93,12.66 26.598,21.32 35.248,23.98 7.737,2.37 13.963,1.14 18.481,-1.87 4.897,-3.27 9.302,-10.38 10.142,-21.64 1.132,-15.16 -3.293,-41.13 -11.323,-69.429 -8.36,-29.464 -20.521,-61.53 -33.357,-86.292 0.719,-1.572 1.407,-3.209 2.063,-4.913 4.259,-11.075 6.863,-28.023 8.437,-43.364 22.413,40.923 46.595,88.856 80.455,120.111 4.847,4.474 14.524,9.989 21.119,10.381 7.315,0.435 12.957,-2.55 16.183,-9.116 1.536,-3.127 2.522,-10.618 0.738,-21.22 -1.864,-11.07 -6.12,-27.319 -11.636,-45.388 3.793,4.014 7.535,7.676 11.117,10.797 8.546,7.446 16.726,11.968 23.09,13.098 8.042,1.428 14.693,-0.845 19.761,-6.927 5.942,-7.13 9.089,-22.19 7.472,-41.823 -1.892,-22.959 -9.177,-53.23 -19.051,-81.408 -0.04,-1.058 -0.099,-2.125 -0.171,-3.201 -1.33,-19.855 -6.826,-43.024 -9.803,-62.115 -1.001,-6.414 -1.877,-12.239 -1.902,-17.035 8.481,6.189 16.252,17.313 23.993,29.625 17.986,28.608 33.809,64.538 46.818,81.264 4,5.143 10.096,14.782 15.332,18.105 4.165,2.644 8.399,3.329 12.33,2.597 2.938,-0.547 5.903,-1.89 8.642,-4.628 1.426,-1.427 2.949,-3.543 3.629,-6.781 0.354,-1.69 0.498,-5.281 -0.559,-10.392 -3.804,-18.4 -24.169,-76.806 -39.424,-122.669 13.049,19.086 31.258,45.12 49.314,60.08 13.11,10.862 26.66,16.031 38.59,13.858 8.773,-1.598 17.383,-6.846 24.639,-18.144 3.76,-5.854 2.047,-13.651 -3.822,-17.401 -5.869,-3.75 -13.687,-2.042 -17.447,3.812 -2.497,3.888 -4.889,6.4 -7.908,6.95 -5.764,1.05 -11.577,-3.206 -17.911,-8.454 -23.54,-19.504 -46.932,-59.347 -57.729,-73.744 -1.476,-1.968 -20.917,-28.138 -27.747,-33.203 -8.33,-6.176 -15.273,-2.465 -18.269,0.42 -1.965,1.892 -4.884,5.536 -3.916,12.306 1.957,13.705 22.623,73.173 38.627,121.455 z M 470.431,969.604 c -4.808,-2.732 -9.105,-5.933 -13.285,-9.214 -6.669,-5.236 -12.775,-11.018 -22.486,-12.636 -2.591,-0.432 -4.8,-0.37 -6.598,0.605 -3.42,1.854 -5.117,5.944 -6.515,10.936 -3.739,13.344 -2.978,32.509 0.585,53.615 6.754,40 24.018,86.67 45.543,116.01 6.484,8.84 13.28,16.05 20.374,20.62 5.275,3.4 10.597,5.29 16.001,4.33 3.438,-0.61 4.959,-3.69 6.192,-7.4 1.573,-4.74 2.243,-10.55 2.382,-17.04 0.95,-44.41 -23.334,-116.8 -31.44,-135.322 -2.916,-6.666 -6.772,-15.535 -10.753,-24.504 z M 671.154,851.745 c 12.174,16.604 28.338,37.128 42.089,49.109 2.462,2.146 5.765,4.263 8.089,5.651 0.159,-0.884 0.276,-1.862 0.412,-2.906 0.632,-4.84 0.575,-10.735 0.029,-17.36 -0.949,-11.523 -3.379,-25.038 -6.87,-39.15 -4.477,4.231 -10.204,7.218 -17.339,8.695 -9.491,1.964 -18.38,0.382 -26.41,-4.039 z m -6.169,-109.952 c -1.746,0.625 -2.882,2.189 -3.862,4.007 -1.346,2.497 -2.244,5.516 -2.858,8.852 -1.898,10.325 -0.925,23.26 2.13,35.701 3.022,12.309 8.076,24.197 14.982,32.426 4.766,5.681 10.309,9.734 17.055,8.337 5.422,-1.122 7.88,-5.125 9.121,-10.232 0.983,-4.043 1.305,-8.638 1.223,-13.583 -5.291,-14.591 -11.307,-28.43 -17.568,-39.943 -5.003,-9.199 -10.074,-16.846 -15.136,-21.836 -1.13,-1.114 -2.238,-2.071 -3.347,-2.819 -0.515,-0.348 -1.358,-0.741 -1.74,-0.91 z M 533.801,893.975 v 1.623 c 0,3.657 0.923,7.477 1.569,9.694 0.983,-0.813 2.31,-1.983 3.602,-3.351 -1.732,-2.861 -3.456,-5.53 -5.171,-7.966 z"
   id="path43"
   style="fill:#ffffff" />
    </g>
    <g
   transform="matrix(0.945279,0.71906,-0.720955,0.947769,845.95849,-848.91177)"
   id="g49"
   style="fill:#ffffff">
        <path
   d="m 419.919,1197.52 c 0.288,0.96 2.12,7 3.549,10.25 1.343,3.07 3.015,5.51 4.472,6.97 3.147,3.17 6.683,4.26 9.848,4.31 2.925,0.05 5.94,-0.73 8.832,-3.04 5.437,-4.35 6.311,-12.28 1.949,-17.71 -0.733,-0.91 -1.567,-1.69 -2.475,-2.34 -0.975,-2.86 -2.578,-7.52 -2.925,-8.3 -13.167,-29.63 -36.714,-56.87 -58.684,-80.21 -28.28,-30.05 -67.033,-68.51 -109.854,-92.34 -45.791,-25.495 -96.056,-34.429 -144.106,-3.54 -55.966,35.98 -55.843,105.75 -26.121,176.99 29.316,70.26 86.534,141.58 136.748,178.08 23.525,17.1 45.937,26.54 63.691,26.54 6.97,0 12.629,-5.64 12.629,-12.59 0,-6.96 -5.659,-12.6 -12.629,-12.6 -18.868,0 -43.4,-15.31 -69.033,-38.08 -41.536,-36.89 -84.434,-94.35 -108.086,-151.03 -24.432,-58.56 -29.519,-116.56 16.486,-146.13 39.397,-25.33 80.566,-16.55 118.111,4.35 40.513,22.56 76.991,59.16 103.747,87.59 20.019,21.27 41.772,45.86 53.851,72.83 z m 12.199,-2.07 c -0.438,0.26 -0.872,0.56 -1.303,0.91 0.419,-0.34 0.853,-0.64 1.303,-0.91 z"
   id="path47"
   style="fill:#ffffff" />
    </g>
    <g
   transform="matrix(0.945279,0.71906,-0.720955,0.947769,845.95849,-848.91177)"
   id="g53"
   style="fill:#ffffff">
        <path
   d="m 322.647,1317.95 c -2.303,3.34 -4.795,6.64 -7.123,10.03 -5.6,8.16 -10.342,16.77 -12.085,26.51 -0.296,0.97 -2.196,7.32 -2.826,11.17 -0.554,3.38 -0.496,6.45 -0.053,8.58 1.06,5.12 4.019,8.22 7.37,9.95 3.138,1.62 8.702,3.37 16.114,-1.81 5.711,-3.99 7.103,-11.85 3.106,-17.54 l -0.202,-0.27 c 0.63,-2.5 1.234,-4.94 1.31,-5.4 1.052,-6.31 4.495,-11.69 8.11,-16.96 4.756,-6.93 9.962,-13.62 13.664,-20.68 l 1.419,-1.22 c 4.525,-3.32 6.312,-9.22 4.383,-14.48 -1.928,-5.26 -7.107,-8.62 -12.71,-8.24 l -5.937,-0.27 c -12.298,-7.59 -28.98,-22.81 -36.835,-39.32 -4.075,-8.56 -5.875,-17.55 -0.644,-25.39 2.289,-3.44 4.563,-5.73 7.232,-6.65 2.85,-0.98 5.841,-0.22 8.905,1.02 5.001,2.02 10.003,5.54 14.896,9.59 11.598,9.59 22.365,22.13 30.209,29.98 4.712,4.71 8.846,8 11.797,9.47 2.04,1.02 6.033,2.32 11.007,0.34 2.969,-1.19 8.412,-5.57 9.865,-7.75 5.01,-7.52 15.949,-20.36 27.502,-29.45 5.901,-4.64 11.636,-8.76 16.763,-8.76 6.971,0 12.63,-5.64 12.63,-12.59 0,-6.95 -5.659,-12.6 -12.63,-12.6 -7.553,0 -16.376,3.22 -25.115,8.92 -13.208,8.61 -26.713,22.87 -35.125,33.61 -1.607,-1.72 -3.39,-3.7 -5.356,-5.77 -10.435,-11.02 -23.78,-25.08 -37.217,-33.35 -11.753,-7.24 -23.815,-10.15 -34.802,-6.97 -7.618,2.2 -15.107,7.28 -21.595,17.01 -10.33,15.49 -9.188,33.23 -1.142,50.14 9.668,20.32 29.708,39.28 45.115,49.15 z"
   id="path51"
   style="fill:#ffffff" />
    </g>
    <g
   transform="matrix(0.945279,0.71906,-0.720955,0.947769,845.95849,-848.91177)"
   id="g57"
   style="fill:#ffffff">
        <path
   d="m 310.17,1077.39 c -3.291,2.86 -28.577,24.85 -33.577,28.85 -1.823,1.46 -15.336,15.25 -21.569,21.63 -4.027,-1.23 -7.078,-4.06 -10.044,-7.07 -4.236,-4.31 -8.179,-9.22 -12.585,-13.63 -4.293,-4.29 -9.925,-9.43 -14.858,-15.08 -3.746,-4.29 -7.255,-8.77 -8.438,-13.5 -0.4,-1.6 0.418,-3.42 1.237,-5.44 1.587,-3.93 4.185,-8.06 7.233,-12.12 6.011,-8 13.803,-15.61 20.517,-20.6 1.757,-1.31 4.057,-2.64 5.526,-3.45 3.601,0.73 7.487,-0.11 10.54,-2.62 5.38,-4.42 6.151,-12.36 1.719,-17.73 -3.728,-4.51 -12.35,-8.01 -23.579,-2.3 -12.348,6.27 -32.958,25.53 -42.475,43.24 -5.308,9.88 -7.12,19.54 -5.227,27.11 3.737,14.95 19.624,29.99 29.921,40.28 5.654,5.66 10.593,12.1 16.28,17.15 7.762,6.89 16.693,11.6 28.661,11.6 0.874,0 4.926,0.03 9.281,-3.86 4.106,-3.66 21.375,-22.12 23.665,-23.95 5.43,-4.35 27.252,-21.09 35.791,-30.61 4.981,-5.55 6.5,-10.89 6.5,-13.65 0,-6.96 -5.659,-12.6 -12.629,-12.6 -5.475,0 -10.142,3.48 -11.89,8.35 z m -71.089,-42.29 c -0.994,-0.67 -1.908,-1.48 -2.707,-2.45 0.756,0.92 1.644,1.78 2.707,2.45 z"
   id="path55"
   style="fill:#ffffff" />
    </g>
    <g
   transform="matrix(0.945279,0.71906,-0.720955,0.947769,845.95849,-848.91177)"
   id="g61"
   style="fill:#ffffff">
        <path
   d="m 102.052,1181.42 8.28,-2.38 c 4.873,1.14 10.172,-0.69 13.222,-5.02 4.005,-5.69 2.625,-13.55 -3.08,-17.55 -2.468,-1.73 -7.476,-3.35 -13.732,-2.47 -7.112,1.01 -16.873,5.02 -19.225,6.78 -17.609,13.21 -24.982,33.62 -24.533,56.04 0.608,30.36 15.977,64.33 35.549,84.62 15.465,16.03 33.728,23.35 49.85,18.91 10.871,-2.99 21.657,-11.31 30.025,-28.05 3.111,-6.22 0.572,-13.79 -5.666,-16.9 -6.238,-3.1 -13.828,-0.57 -16.938,5.66 -4.201,8.4 -8.684,13.5 -14.141,15.01 -8.38,2.3 -16.89,-3.77 -24.929,-12.1 -15.653,-16.23 -28.01,-43.37 -28.496,-67.65 -0.275,-13.74 3.305,-26.62 13.814,-34.9 z"
   id="path59"
   style="fill:#ffffff" />
    </g>
    <g
   transform="matrix(0.945279,0.71906,-0.720955,0.947769,845.95849,-848.91177)"
   id="g65"
   style="fill:#ffffff">
        <path
   d="m 1031.09,322.873 c -1.65,7.892 -3.66,15.576 -6.02,22.91 -7.3,22.632 -17.77,41.982 -32.113,52.578 -5.602,4.137 -6.782,12.032 -2.634,17.619 4.148,5.587 12.067,6.764 17.667,2.627 18.56,-13.709 32.96,-38.608 42.09,-68.225 14.57,21.241 28.79,42.579 40.3,63.019 -4.31,2.688 -7.79,6.149 -10.35,10.42 -12.51,20.857 -13.39,47.474 -8.02,69.251 3.72,15.104 10.48,27.79 17.73,35.083 7.58,7.634 16.18,10.253 24.02,8.605 8.93,-1.874 20.06,-11.16 25.66,-35.421 3.43,-14.853 1.67,-31.937 -4.26,-50.449 -2.06,-6.449 -4.64,-13.098 -7.64,-19.909 11,-0.059 23.32,0.814 35.49,0.946 37.33,0.402 71.98,-7.127 78.9,-48.608 1.63,-9.799 1.3,-19.741 -0.39,-29.632 2.91,2.242 5.76,4.159 8.49,5.652 8.34,4.554 16.21,5.72 22.69,3.998 7.19,-1.909 13.94,-7.126 17.77,-18.617 3.13,-9.39 1.58,-22.117 -2.82,-30.916 -3.11,-6.221 -10.7,-8.753 -16.93,-5.651 -6.24,3.103 -8.78,10.673 -5.67,16.894 1.68,3.349 2.64,8.151 1.45,11.725 -0.21,0.625 -0.56,1.36 -0.85,1.911 -0.67,-0.191 -1.57,-0.477 -2.21,-0.778 -3.04,-1.437 -6.26,-3.74 -9.58,-6.507 -15.08,-12.532 -31.37,-34.013 -39.93,-46.259 -1.1,-2.004 -2.2,-3.983 -3.28,-5.93 -2.5,-4.498 -5.32,-14.489 -5.32,-14.489 -1.87,-6.364 -8.37,-10.194 -14.86,-8.76 -6.49,1.433 -10.75,7.64 -9.75,14.195 0,0 2.42,13.672 5.91,19.495 0.86,1.435 2.81,4.391 5.59,8.328 13.63,24.348 29.44,53.216 24.77,81.21 -3,18.017 -15.6,24.128 -30.57,26.338 -12.91,1.909 -27.46,1.188 -41.22,0.68 -10.67,-0.395 -20.92,-0.626 -29.92,0.119 -6.61,-12.12 -14.17,-24.564 -22.27,-37.129 -11.12,-17.249 -23.24,-34.756 -35.18,-51.992 7.32,-43.837 4.74,-91.487 -8.03,-123.572 -12.84,-32.273 -35.53,-49.795 -66.47,-42.06 -5.897,1.474 -10.84,5.717 -13.985,12.29 -3.914,8.179 -4.762,21.087 -4.762,26.62 0,16.019 7.049,35.887 18.872,57.909 12.212,22.748 29.485,48.203 47.635,74.482 z m 71.06,113.254 c -0.16,0.196 -0.31,0.406 -0.44,0.631 -12.63,21.04 -8.06,50.207 1.02,66.713 1.53,2.777 3.17,5.163 4.94,6.948 0.28,0.283 0.66,0.593 1.02,0.866 0.62,-0.816 1.44,-1.979 1.97,-3.056 1.58,-3.198 2.95,-7.35 4.15,-12.541 3.22,-13.985 -0.57,-30.481 -7.86,-48.554 -1.46,-3.621 -3.06,-7.294 -4.8,-11.007 z M 991.912,175.501 c -0.349,0.96 -0.805,2.315 -1.007,3.288 -0.925,4.463 -1.063,9.218 -1.063,11.693 0,15.636 9.365,35.387 22.478,57.725 7,11.929 15.12,24.47 23.81,37.376 1.29,-19.677 0.42,-39.217 -2.66,-56.559 -3.25,-18.271 -8.82,-34.039 -17.49,-44.207 -6.19,-7.251 -14.18,-10.984 -24.068,-9.316 z"
   id="path63"
   style="fill:#ffffff" />
    </g>
    <g
   transform="matrix(0.945279,0.71906,-0.720955,0.947769,845.95849,-848.91177)"
   id="g69"
   style="fill:#ffffff">
        <path
   d="m 1142.39,212.836 c -0.28,0.504 -0.45,0.89 -0.53,1.07 -0.27,0.594 -3.43,17.317 12.08,17.977 1.62,0.069 3.18,-0.17 4.63,-0.667 2.75,-0.391 6.49,-1.043 8.59,-1.902 3.52,-1.434 5.84,-3.654 7.18,-5.671 1.71,-2.578 2.44,-5.39 2.25,-8.392 -0.18,-2.642 -1.03,-5.929 -4.29,-9.188 0,0 -1.04,-1.246 -3.52,-2.485 -1.38,-0.691 -8.29,-4.145 -8.29,-4.145 -6.23,-3.115 -13.83,-0.599 -16.95,5.616 -1.26,2.502 -1.6,5.225 -1.15,7.787 z"
   id="path67"
   style="fill:#ffffff" />
    </g>
</svg>
